<?xml version="1.0" encoding="UTF-8"?>
<!--Generator: Apple Native CoreSVG 221--><!DOCTYPE svg PUBLIC "-//W3C//DTD SVG 1.1//EN" "http://www.w3.org/Graphics/SVG/1.1/DTD/svg11.dtd"><svg version="1.1" xmlns="http://www.w3.org/2000/svg" xmlns:xlink="http://www.w3.org/1999/xlink" width="19.4746" height="19.4747"><g id="Bold-L" transform="matrix(0.13 0 0 0.13 -2.08839 14.3077)"><path d="M53.7109 39.7461L128.223 39.7461C151.172 39.7461 165.869 24.9512 165.869 2.24609L165.869-72.5586C165.869-95.2637 151.172-110.059 128.223-110.059L53.7109-110.059C30.7129-110.059 16.0645-95.3125 16.0645-72.5586L16.0645 2.24609C16.0645 25 30.7129 39.7461 53.7109 39.7461ZM53.7109 27.0508C37.3047 27.0508 28.7598 18.6035 28.7598 2.24609L28.7598-72.5586C28.7598-88.916 37.3047-97.3633 53.7109-97.3633L128.223-97.3633C144.678-97.3633 153.174-88.8672 153.174-72.5586L153.174 2.24609C153.174 18.5547 144.678 27.0508 128.223 27.0508ZM53.7109 20.3613L128.223 20.3613C141.504 20.3613 146.484 15.3809 146.484 2.24609L146.484-72.5586C146.484-85.6934 141.504-90.6738 128.223-90.6738L53.7109-90.6738C40.4785-90.6738 35.4492-85.7422 35.4492-72.5586L35.4492 2.24609C35.4492 15.4297 40.4785 20.3613 53.7109 20.3613ZM51.0742-14.7461C47.7539-14.7949 44.873-17.3828 44.873-20.752C44.873-24.4629 47.7539-26.9043 51.0742-26.9531L65.625-26.9531L84.2285-59.0332L78.6133-68.7988C76.8555-71.8262 77.4902-75.4883 80.7617-77.3438C83.7891-78.9551 87.4023-77.8809 89.1113-74.8047L91.1133-71.3379L93.2129-74.8047C95.0684-77.7344 98.584-78.9062 101.611-77.3438C104.834-75.5371 105.615-71.7773 103.857-68.7988L79.6387-26.9531L93.0664-26.9531C100.098-26.9043 103.223-20.459 101.465-14.7461ZM127.002 2.7832C123.779 4.58984 120.41 3.32031 118.701 0.390625L98.3887-34.5215C94.7266-40.8691 95.7031-51.3184 100.83-54.6387L116.895-26.9531L131.201-26.9531C134.717-26.9043 137.646-24.4629 137.646-20.752C137.646-17.3828 134.668-14.7949 131.201-14.7461L123.779-14.7461L129.102-5.56641C130.908-2.53906 130.078 1.07422 127.002 2.7832ZM55.4199 2.7832C52.2461 1.07422 51.8555-2.53906 53.3691-5.56641L56.4453-11.5234C62.2559-12.9883 67.2363-10.4004 68.457-7.76367L63.7695 0.390625C62.1094 3.27148 58.4961 4.6875 55.4199 2.7832Z"/></g></svg>
